<svg xmlns="http://www.w3.org/2000/svg">
    <symbol  id="facebook" viewBox="0 0 310 310">
        <path id="XMLID_835_" d="M81.703,165.106h33.981V305c0,2.762,2.238,5,5,5h57.616c2.762,0,5-2.238,5-5V165.765h39.064
		c2.54,0,4.677-1.906,4.967-4.429l5.933-51.502c0.163-1.417-0.286-2.836-1.234-3.899c-0.949-1.064-2.307-1.673-3.732-1.673h-44.996
		V71.978c0-9.732,5.24-14.667,15.576-14.667c1.473,0,29.42,0,29.42,0c2.762,0,5-2.239,5-5V5.037c0-2.762-2.238-5-5-5h-40.545
		C187.467,0.023,186.832,0,185.896,0c-7.035,0-31.488,1.381-50.804,19.151c-21.402,19.692-18.427,43.27-17.716,47.358v37.752H81.703
		c-2.762,0-5,2.238-5,5v50.844C76.703,162.867,78.941,165.106,81.703,165.106z"/>
    </symbol>  
     <symbol  id="instagram" viewBox="0 0 24 24">
        <path d="M12 0C8.74 0 8.333.015 7.053.072 5.775.132 4.905.333 4.14.63c-.789.306-1.459.717-2.126 1.384S.935 3.35.63 4.14C.333 4.905.131 5.775.072 7.053.012 8.333 0 8.74 0 12s.015 3.667.072 4.947c.06 1.277.261 2.148.558 2.913.306.788.717 1.459 1.384 2.126.667.666 1.336 1.079 2.126 1.384.766.296 1.636.499 2.913.558C8.333 23.988 8.74 24 12 24s3.667-.015 4.947-.072c1.277-.06 2.148-.262 2.913-.558.788-.306 1.459-.718 2.126-1.384.666-.667 1.079-1.335 1.384-2.126.296-.765.499-1.636.558-2.913.06-1.28.072-1.687.072-4.947s-.015-3.667-.072-4.947c-.06-1.277-.262-2.149-.558-2.913-.306-.789-.718-1.459-1.384-2.126C21.319 1.347 20.651.935 19.86.63c-.765-.297-1.636-.499-2.913-.558C15.667.012 15.26 0 12 0zm0 2.16c3.203 0 3.585.016 4.85.071 1.17.055 1.805.249 2.227.415.562.217.96.477 1.382.896.419.42.679.819.896 1.381.164.422.36 1.057.413 2.227.057 1.266.07 1.646.07 4.85s-.015 3.585-.074 4.85c-.061 1.17-.256 1.805-.421 2.227-.224.562-.479.96-.899 1.382-.419.419-.824.679-1.38.896-.42.164-1.065.36-2.235.413-1.274.057-1.649.07-4.859.07-3.211 0-3.586-.015-4.859-.074-1.171-.061-1.816-.256-2.236-.421-.569-.224-.96-.479-1.379-.899-.421-.419-.69-.824-.9-1.38-.165-.42-.359-1.065-.42-2.235-.045-1.26-.061-1.649-.061-4.844 0-3.196.016-3.586.061-4.861.061-1.17.255-1.814.42-2.234.21-.57.479-.96.9-1.381.419-.419.81-.689 1.379-.898.42-.166 1.051-.361 2.221-.421 1.275-.045 1.65-.06 4.859-.06l.045.03zm0 3.678c-3.405 0-6.162 2.76-6.162 6.162 0 3.405 2.76 6.162 6.162 6.162 3.405 0 6.162-2.76 6.162-6.162 0-3.405-2.76-6.162-6.162-6.162zM12 16c-2.21 0-4-1.79-4-4s1.79-4 4-4 4 1.79 4 4-1.79 4-4 4zm7.846-10.405c0 .795-.646 1.44-1.44 1.44-.795 0-1.44-.646-1.44-1.44 0-.794.646-1.439 1.44-1.439.793-.001 1.44.645 1.44 1.439z"/>
    </symbol>
    <symbol  id="bag" viewBox="0 0 511 511">
        <path d="M445.663,469.921l-14.362-359.041C430.968,102.537,424.165,96,415.814,96H351v-0.5C351,42.841,308.159,0,255.5,0
        S160,42.841,160,95.5V96H95.187c-8.351,0-15.153,6.536-15.488,14.88L65.337,469.921c-0.434,10.842,3.468,21.122,10.985,28.946
        C83.84,506.691,93.956,511,104.806,511h301.389c10.851,0,20.966-4.309,28.484-12.133
        C442.195,491.042,446.097,480.763,445.663,469.921z M175,95.5c0-44.388,36.112-80.5,80.5-80.5S336,51.112,336,95.5V96H175V95.5z
        M423.862,488.474c-4.663,4.853-10.938,7.526-17.667,7.526H104.806c-6.73,0-13.004-2.672-17.667-7.525
        c-4.663-4.853-7.083-11.229-6.813-17.954L94.687,111.48c0.011-0.27,0.23-0.48,0.5-0.48H160v48.5c0,4.142,3.358,7.5,7.5,7.5
        s7.5-3.358,7.5-7.5V111h161v48.5c0,4.142,3.358,7.5,7.5,7.5s7.5-3.358,7.5-7.5V111h64.814c0.269,0,0.488,0.21,0.499,0.48
        l14.362,359.041C430.944,477.245,428.524,483.621,423.862,488.474z"/>
    </symbol>
	<symbol  id="burger-menu" viewBox="0 0 24 24">
         <path d="M3.5,7 C3.22385763,7 3,6.77614237 3,6.5 C3,6.22385763 3.22385763,6 3.5,6 L20.5,6 C20.7761424,6 21,6.22385763 21,6.5 C21,6.77614237 20.7761424,7 20.5,7 L3.5,7 Z M3.5,12 C3.22385763,12 3,11.7761424 3,11.5 C3,11.2238576 3.22385763,11 3.5,11 L20.5,11 C20.7761424,11 21,11.2238576 21,11.5 C21,11.7761424 20.7761424,12 20.5,12 L3.5,12 Z M3.5,17 C3.22385763,17 3,16.7761424 3,16.5 C3,16.2238576 3.22385763,16 3.5,16 L20.5,16 C20.7761424,16 21,16.2238576 21,16.5 C21,16.7761424 20.7761424,17 20.5,17 L3.5,17 Z"/>
    </symbol>
    <symbol  id="lock" viewBox="0 0 220.919 220.919">
        <path d="M154.251,220.919H66.667c-31.085,0-56.374-25.289-56.374-56.374V91.199c0-2.209,1.791-4,4-4h15.666v-7.464
        C29.959,35.77,65.729,0,109.694,0h1.53c43.966,0,79.734,35.77,79.734,79.735v7.464h15.667c2.209,0,4,1.791,4,4v73.346
        C210.626,195.63,185.336,220.919,154.251,220.919z M18.293,95.199v69.346c0,26.674,21.7,48.374,48.374,48.374h87.584
        c26.674,0,48.375-21.7,48.375-48.374V95.199H18.293z M37.959,87.199h145v-7.464C182.959,40.181,150.779,8,111.225,8h-1.53
        C70.14,8,37.959,40.181,37.959,79.735V87.199z M110.542,190.89h-0.165c-6.707,0-12.164-5.457-12.164-12.164v-16.979
        c-7.011-4.253-11.416-11.933-11.416-20.224c0-13.048,10.615-23.663,23.662-23.663s23.662,10.615,23.662,23.663
        c0,8.29-4.406,15.971-11.415,20.224v16.979C122.706,185.433,117.249,190.89,110.542,190.89z M110.459,125.859
        c-8.636,0-15.662,7.026-15.662,15.663c0,6.066,3.571,11.641,9.098,14.2c1.414,0.655,2.318,2.071,2.318,3.63v19.373
        c0,2.296,1.868,4.164,4.164,4.164h0.165c2.296,0,4.164-1.868,4.164-4.164v-19.373c0-1.559,0.904-2.975,2.318-3.63
        c5.526-2.56,9.097-8.134,9.097-14.2C126.121,132.886,119.095,125.859,110.459,125.859z"/>
    </symbol>
        <symbol  id="closeBtn" viewBox="0 0 490 490">
            <polygon points="11.387,490 245,255.832 478.613,490 489.439,479.174 255.809,244.996 489.439,10.811 478.613,0 245,234.161 
	        11.387,0 0.561,10.811 234.191,244.996 0.561,479.174 "/>
    </symbol>

    <symbol  id="car" viewBox="0 0 470 470">
        <path d="m126.184,358.951c19.299,0 35-15.701 35-35s-15.701-35-35-35-35,15.701-35,35 15.701,35 35,35zm0-55c11.028,0 20,8.972 20,20s-8.972,20-20,20-20-8.972-20-20 8.971-20 20-20z"/>
        <path d="m343.816,288.951c-19.299,0-35,15.701-35,35s15.701,35 35,35 35-15.701 35-35-15.701-35-35-35zm0,55c-11.028,0-20-8.972-20-20s8.972-20 20-20 20,8.972 20,20-8.971,20-20,20z"/>
        <path d="m137.5,116.049h23.779c4.143,0 7.5-3.358 7.5-7.5s-3.357-7.5-7.5-7.5h-23.779c-10.423,0-27.031,7.176-34.177,14.767l-60.088,63.845c-2.051,2.179-2.609,5.368-1.423,8.115 1.187,2.747 3.893,4.525 6.885,4.525h290.271c2.562,0 4.945-1.307 6.323-3.467 1.377-2.159 1.558-4.873 0.478-7.195l-30.854-66.365c-3.315-7.046-14.628-14.225-22.415-14.225h-101.221c-4.143,0-7.5,3.358-7.5,7.5l-.001,68.752h-117.722l48.19-51.204c4.243-4.508 17.066-10.048 23.254-10.048zm61.279,0h93.7c2.203,0.103 7.842,3.681 8.849,5.581l25.883,55.671h-128.433l.001-61.252z"/>
        <path d="m470,257.692c0-26.631-20.555-55.149-45.819-63.57-0.017-0.006-35.078-11.693-35.078-11.693-5.854-1.951-13.576-8.812-16.203-14.394l-30.84-65.535c-8.299-17.636-30.068-31.451-49.56-31.451h-155c-18.639,0-43.247,10.632-56.022,24.206l-69.158,73.482c-6.909,7.34-12.32,20.984-12.32,31.064v94.15c0,20.678 16.822,37.5 37.5,37.5h14.06c3.775,37.846 35.8,67.5 74.624,67.5s70.849-29.654 74.624-67.5h45.509c4.143,0 7.5-3.358 7.5-7.5s-3.357-7.5-7.5-7.5h-45.509c-3.775-37.846-35.8-67.5-74.624-67.5s-70.849,29.654-74.624,67.5h-14.06c-12.406,0-22.5-10.093-22.5-22.5v-94.15c0-6.294 3.929-16.2 8.242-20.783l69.159-73.483c9.941-10.563 30.594-19.486 45.099-19.486h155c13.682,0 30.162,10.458 35.987,22.838l30.84,65.535c4.421,9.395 15.182,18.955 25.031,22.238l28.498,9.499c-0.492,2.841-0.748,5.729-0.748,8.642 0,25.238 18.65,46.198 42.892,49.831v29.32c0,12.407-8.357,22.5-18.631,22.5h-17.929c-3.775-37.846-35.8-67.5-74.624-67.5-41.355,0-75,33.645-75,75s33.645,75 75,75c38.824,0 70.849-29.654 74.624-67.5h17.929c18.544,0 33.631-16.822 33.631-37.5v-36.26zm-343.816,6.259c33.084,0 60,26.916 60,60s-26.916,60-60,60-60-26.916-60-60 26.916-60 60-60zm217.632,120c-33.084,0-60-26.916-60-60s26.916-60 60-60 60,26.916 60,60-26.916,60-60,60zm83.292-169.15c0-0.969 0.04-1.934 0.117-2.893 13.16,7.627 23.787,22.37 26.864,37.266-15.466-3.785-26.981-17.756-26.981-34.373z"/>
    </symbol>
    <symbol  id="flower" viewBox="0 0 201.712 201.712">
				<path d="M168.738,78.689c-6.199-11.366-22.006-15.919-30.417-18.148
			c6.428-7.329,19.362-22.715,16.466-36.272c-1.378-6.413-6.023-11.459-13.804-14.995c-0.705-0.322-2.97-1.557-5.043-2.684
			c-6.936-3.769-10.067-5.397-11.481-5.748c-4.105-1.02-8.052-1.117-11.61-0.268c-14.434,3.4-20.013,20.79-22.726,29.429
			c-6.31-5.186-18.589-14.981-30.596-14.981c-1.575,0-3.11,0.172-4.563,0.515c-5.601,1.317-10.214,5.089-13.736,11.213
			c-0.14,0.254-0.744,1.26-1.553,2.602l-0.19,0.315c-3.837,6.352-5.601,9.319-5.952,10.078c-3.686,8.128-4.098,15.5-1.213,21.899
			c5.35,11.875,20.371,16.917,28.473,19.415c-5.851,7.158-17.382,22.021-14.251,35.316c1.557,6.571,6.399,11.717,14.412,15.31
			c0.469,0.211,2.892,1.578,4.846,2.677l0.419,0.236c6.098,3.45,8.292,4.645,9.276,4.96c5.071,1.6,9.91,1.897,14.244,0.877
			c12.776-3.01,18.764-16.921,21.405-24.082c7.347,12.834,20.131,43.243,5.712,82.092l-0.34,0.898l6.399,2.369l0.329-0.902
			c13.374-36.032,4.613-65.582-2.96-81.591c7.816,4.688,14.888,7.057,21.079,7.057c1.743,0,3.439-0.19,5.043-0.565
			c6.807-1.603,12.122-6.506,15.786-14.57c0.211-0.469,2.154-3.847,2.881-5.132c3.343-5.823,4.499-7.909,4.785-8.775
			C172.074,90.352,171.709,84.118,168.738,78.689z M164.2,95.302c-0.258,0.651-2.799,5.107-4.173,7.505l-0.132,0.233
			c-1.872,3.264-2.859,4.996-3.149,5.633c-2.859,6.292-6.803,10.064-11.717,11.22c-1.177,0.272-2.434,0.419-3.74,0.419
			c-10.873,0-23.209-9.513-27.972-13.217l-0.748-0.859l-0.179,0.14l-3.228-2.512l-2.831,8.239
			c-2.122,5.97-7.079,19.956-17.969,22.525c-3.267,0.773-7.047,0.508-11.012-0.744c-0.709-0.258-5.451-2.928-8.192-4.484
			c-3.099-1.75-5.032-2.834-5.751-3.16c-6.238-2.791-9.946-6.567-11.041-11.234c-2.609-11.08,9.359-25.671,13.872-31.165
			c0.966-1.192,1.675-2.047,2.083-2.656l2.015-3.049l-3.389-1.364c-0.755-0.308-1.882-0.659-3.318-1.099
			c-6.936-2.119-21.369-6.531-25.864-16.488c-2.144-4.767-1.743-10.475,1.206-16.957c0.329-0.684,3.987-6.753,5.63-9.484
			c0.948-1.564,1.664-2.759,1.814-3.031c2.663-4.624,6.002-7.44,9.917-8.367c1.027-0.24,2.112-0.361,3.25-0.361
			c10.207,0,22.225,9.899,27.367,14.129c1.335,1.102,2.301,1.9,3.01,2.373l3.021,1.99l1.385-3.328
			c0.408-0.977,0.837-2.33,1.385-4.083c2.512-8.045,7.193-23.026,18.467-25.682c2.641-0.619,5.651-0.53,8.793,0.243
			c0.956,0.258,7.176,3.636,9.835,5.078l0.24,0.132c2.82,1.528,4.581,2.48,5.422,2.867c5.97,2.716,9.488,6.349,10.436,10.812
			c2.401,11.216-10.425,25.778-16.008,32.117c-1.177,1.335-1.954,2.212-2.373,2.842l-2.072,3.078l3.45,1.364
			c0.82,0.326,2.04,0.651,3.865,1.134c7.297,1.922,22.475,5.923,27.697,15.5C165.675,85.539,165.897,90.051,164.2,95.302z"/>
		<path  d="M100.822,52.459c-1.396,0-2.799,0.165-4.166,0.487c-9.738,2.298-15.797,12.089-13.503,21.827
			c1.943,8.231,9.208,13.983,17.662,13.983h0.007c1.385,0,2.792-0.161,4.159-0.487c4.713-1.109,8.711-3.99,11.259-8.12
			c2.562-4.126,3.35-8.997,2.244-13.707C116.544,58.21,109.276,52.459,100.822,52.459z M110.6,76.659
			c-1.625,2.616-4.155,4.445-7.147,5.15c-0.866,0.204-1.754,0.304-2.641,0.304c-5.365,0-9.967-3.647-11.191-8.865
			c-1.457-6.177,2.384-12.383,8.561-13.839c0.866-0.204,1.754-0.308,2.641-0.308c5.365,0,9.967,3.647,11.191,8.865
			C112.726,70.955,112.217,74.04,110.6,76.659z"/>
    </symbol>
        <symbol  id="socialLink" viewBox="0 0 333.115 333.115">
            <path d="M229.143,235.253c-5.458,0-10.697,0.909-15.602,2.566l-61.606-61.6c0.633-3.124,0.965-6.354,0.965-9.661
            c0-3.307-0.332-6.535-0.965-9.656l61.606-61.602c4.904,1.655,10.144,2.568,15.602,2.568c26.986,0,48.938-21.951,48.938-48.931
            C278.08,21.952,256.129,0,229.143,0c-26.976,0-48.925,21.952-48.925,48.938c0,5.459,0.907,10.703,2.563,15.609l-57.824,57.822
            c-6.363-3.036-13.48-4.743-20.986-4.743c-26.985,0-48.936,21.953-48.936,48.932c0,26.986,21.95,48.938,48.936,48.938
            c7.506,0,14.623-1.706,20.987-4.743l57.823,57.824c-1.656,4.903-2.563,10.152-2.563,15.608c0,26.981,21.949,48.931,48.925,48.931
            c26.986,0,48.938-21.949,48.938-48.931C278.08,257.203,256.129,235.253,229.143,235.253z"/>
    </symbol>
    <symbol id="arrowRight" viewBox="0 0 12 12">
        <polygon points="3.8535156,12 3.1464844,11.2929688 8.4394531,6 3.1464844,0.7070313 3.8535156,0 9.8535156,6 "/>
    </symbol>
    <symbol id="arrowLeft" viewBox="0 0 12 12">
        <polygon points="8.1464844,12 2.1464844,6 8.1464844,0 8.8535156,0.7070313 3.5605469,6 8.8535156,11.2929688 "/>
    </symbol> 

</svg>